<?xml version="1.0" encoding="UTF-8"?> <svg xmlns="http://www.w3.org/2000/svg" width="359" height="200" viewBox="0 0 359 200" fill="none"><g clip-path="url(#clip0_148:2)"><path d="M239.178 124.597C238.509 124.597 237.852 124.418 237.274 124.08C236.697 123.741 236.22 123.255 235.893 122.67C233.121 117.67 232.412 111.586 231.783 106.221C231.702 105.456 231.612 104.711 231.521 103.99C231.328 102.104 230.921 100.246 230.309 98.4517C229.719 96.8434 228.696 95.2966 228.683 93.5198C228.684 92.7514 228.921 92.0019 229.36 91.3717C229.8 90.7415 230.422 90.2608 231.142 89.9941C231.863 89.7274 232.648 89.6875 233.392 89.8797C234.135 90.072 234.803 90.4871 235.304 91.0695C236.723 92.7162 237.819 95.8376 238.586 100.366C238.679 100.184 238.77 100.018 238.86 99.8491C242.085 94.0414 248.982 90.0202 252.804 88.1373C253.699 87.6973 254.732 87.6308 255.675 87.9523C256.619 88.2738 257.396 88.9569 257.836 89.8515C258.276 90.7461 258.343 91.7789 258.021 92.7225C257.7 93.6662 257.017 94.4435 256.122 94.8835C251.032 97.3807 247.037 100.601 245.434 103.49C243.715 106.587 242.704 109.626 242.657 111.836C242.618 113.637 242.704 115.413 242.795 117.288C242.846 118.418 242.902 119.584 242.932 120.754C242.951 121.593 242.689 122.415 242.187 123.088C241.685 123.761 240.973 124.247 240.162 124.468C239.842 124.555 239.511 124.598 239.178 124.597" fill="#5A2E15"></path><path d="M297.725 94.4601C293.399 94.224 286.473 95.0058 282.157 95.8708C281.856 95.9262 281.555 95.9828 281.254 96.0298C281.49 92.5808 281.809 89.1126 282.139 85.5395C282.35 83.2265 282.574 80.8268 282.768 78.4536C282.841 77.5513 283.046 76.3467 283.262 75.0697C283.803 71.893 284.366 68.5946 283.735 65.9467C283.501 64.9783 282.893 64.1422 282.043 63.6222C281.193 63.1022 280.172 62.9409 279.203 63.1736C277.121 63.6675 276.46 65.3444 276.405 67.3092C276.293 70.8786 275.57 74.3011 275.277 77.8429C275.088 80.1811 274.869 82.5555 274.659 84.8504C274.303 88.7512 273.941 92.7242 273.692 96.7466C273.055 96.7731 272.418 96.8032 271.774 96.8297C269.431 96.9237 267.023 96.9839 264.697 97.1983C262.849 97.367 261.305 98.1103 260.857 100.057C260.636 101.029 260.81 102.048 261.34 102.892C261.871 103.735 262.714 104.334 263.686 104.555C264.395 104.709 265.119 104.781 265.845 104.771C266.931 104.75 268.016 104.673 269.095 104.538C269.757 104.47 270.377 104.401 270.857 104.383L272.084 104.331C272.517 104.319 272.956 104.293 273.391 104.276C273.386 104.762 273.373 105.238 273.373 105.717C273.356 112.642 273.503 120.585 275.399 127.154C275.625 127.935 276.098 128.622 276.747 129.112C277.397 129.602 278.187 129.869 279.001 129.871C279.356 129.874 279.71 129.823 280.05 129.721C281.006 129.444 281.813 128.798 282.293 127.927C282.774 127.055 282.888 126.028 282.612 125.072C280.996 119.449 280.872 112.145 280.885 105.733C280.885 105.049 280.902 104.363 280.914 103.682C281.809 103.558 282.711 103.417 283.623 103.235C288.13 102.348 292.715 101.921 297.308 101.963C298.303 102.018 299.279 101.676 300.022 101.011C300.764 100.347 301.212 99.4146 301.267 98.4198C301.323 97.425 300.981 96.449 300.316 95.7064C299.652 94.9638 298.72 94.5155 297.725 94.4601" fill="#5A2E15"></path><path d="M346.458 120.493C345.686 120.492 344.933 120.254 344.3 119.811C343.668 119.368 343.187 118.741 342.923 118.016C341.075 112.9 341.084 107.801 341.089 102.865V101.979C341.089 101.343 341.157 100.508 341.23 99.4553C341.49 96.8895 341.532 94.3063 341.355 91.7334C340.57 92.7828 339.846 93.8755 339.184 95.0065C338.784 95.6679 338.41 96.2907 338.031 96.8364C336.065 99.7161 334.283 102.717 332.696 105.822C332.334 106.545 331.961 107.271 331.581 108.012C329.832 111.266 328.258 114.612 326.865 118.034C326.689 118.495 326.424 118.917 326.086 119.275C325.747 119.634 325.341 119.922 324.89 120.124C324.44 120.325 323.955 120.436 323.461 120.45C322.968 120.464 322.477 120.381 322.016 120.205C319.893 119.392 319.531 117.497 319.815 115.462C320.619 109.706 322.055 104.055 322.863 98.2941C323.238 95.6281 323.913 92.9598 323.672 90.2421C323.584 89.2504 323.894 88.2644 324.533 87.5009C325.172 86.7375 326.088 86.259 327.079 86.1707C328.071 86.0824 329.057 86.3914 329.821 87.03C330.585 87.6685 331.064 88.5843 331.153 89.5759C331.234 91.022 331.168 92.4728 330.955 93.9055C331.243 93.4742 331.539 93.0369 331.831 92.6032C332.085 92.2286 332.408 91.6949 332.752 91.1227C334.424 88.3628 336.711 84.5753 340.323 83.5393C341.267 83.2336 342.273 83.1675 343.25 83.3469C344.226 83.5262 345.143 83.9455 345.917 84.5669C349.36 87.3653 349.206 93.4706 348.729 100.006C348.66 100.841 348.603 101.627 348.603 101.979V102.869C348.595 107.358 348.591 111.592 349.994 115.457C350.199 116.025 350.264 116.633 350.184 117.231C350.104 117.83 349.881 118.4 349.534 118.894C349.187 119.387 348.727 119.791 348.191 120.069C347.656 120.347 347.061 120.493 346.458 120.493" fill="#5A2E15"></path><path d="M20.2328 123.514C15.2434 123.61 10.2792 122.784 5.58996 121.077C1.20857 119.361 0.141235 116.644 0.0135363 114.675C-0.31413 109.628 5.3924 105.929 7.85957 104.575C8.29209 104.338 8.76708 104.188 9.25743 104.135C9.74777 104.081 10.2439 104.125 10.7174 104.263C11.1909 104.401 11.6326 104.631 12.0172 104.94C12.4018 105.249 12.7218 105.63 12.959 106.063C13.1961 106.496 13.3457 106.97 13.3993 107.461C13.4529 107.951 13.4093 108.447 13.2712 108.921C13.133 109.394 12.903 109.836 12.5941 110.221C12.2853 110.605 11.9037 110.925 11.4712 111.162C10.6279 111.626 9.41239 112.198 8.93414 113.084C8.52094 113.842 9.29072 114.439 9.92318 114.64C10.4906 114.816 11.0628 114.962 11.6338 115.1C12.8629 115.388 14.1079 115.604 15.3623 115.746C18.5686 116.097 21.802 116.126 25.0141 115.832C28.5942 115.511 32.1417 114.894 35.62 113.987C40.2219 112.797 45.8573 110.246 47.3584 107.465C47.5401 107.152 47.649 106.802 47.6772 106.44C47.7053 106.079 47.6519 105.716 47.521 105.379C46.9548 103.703 44.2057 101.278 34.331 99.253C33.3637 99.0506 32.2156 98.853 31.0025 98.6301C26.4067 97.8122 20.6845 96.7882 15.9212 94.6234C7.72585 90.9034 6.24772 85.3523 6.45012 81.3504C6.78021 74.8234 11.8446 69.7373 20.0015 67.746C25.8658 66.3112 32.3879 66.8654 39.3786 69.3928C39.8428 69.5604 40.2695 69.8179 40.6341 70.1505C40.9988 70.4831 41.2943 70.8843 41.5038 71.3312C41.7133 71.7781 41.8327 72.2618 41.8552 72.7549C41.8777 73.2479 41.8028 73.7406 41.6347 74.2046C41.4667 74.6687 41.2089 75.0951 40.876 75.4595C40.5431 75.8239 40.1417 76.1191 39.6947 76.3283C39.2476 76.5375 38.7638 76.6565 38.2707 76.6786C37.7776 76.7006 37.2851 76.6253 36.8211 76.457C32.9903 75.0728 27.2717 73.6959 21.7892 75.0427C19.5028 75.6016 14.1709 77.3725 13.9516 81.7322C13.6589 87.4255 22.8686 89.5493 32.3228 91.2347C33.5914 91.4587 34.7828 91.6719 35.8489 91.896C43.3685 93.4441 52.3108 96.1016 54.6382 102.972C55.1006 104.286 55.2797 105.684 55.1639 107.072C55.048 108.461 54.6398 109.809 53.966 111.029C50.4965 117.465 40.4917 120.488 37.5126 121.258C31.8646 122.703 26.0626 123.461 20.2327 123.514" fill="#5A2E15"></path><path d="M97.6324 97.3421C97.3881 96.3764 96.7703 95.5473 95.9148 95.037C95.0593 94.5267 94.0362 94.377 93.0703 94.6208C88.509 95.6961 83.867 96.3951 79.1913 96.7109C79.0482 93.4397 79.1359 90.1625 79.4539 86.9037C79.984 81.8766 80.4213 75.1485 80.5767 69.7612C80.6039 68.767 80.2357 67.8026 79.5528 67.0796C78.87 66.3566 77.9282 65.934 76.9341 65.9045C75.94 65.875 74.9748 66.241 74.2502 66.9222C73.5257 67.6035 73.1009 68.5443 73.0692 69.5383C72.9186 74.7618 72.4933 81.2706 71.9862 86.1206C71.6224 89.8192 71.5245 93.5392 71.6934 97.2518C68.8913 97.4361 66.0905 97.6252 63.3017 97.9059C62.3126 98.0047 61.3838 97.8493 60.4635 98.3095C60.4382 98.3215 60.4129 98.3396 60.3864 98.3529C59.8534 98.5617 59.3755 98.89 58.9894 99.3125C58.6032 99.735 58.3191 100.24 58.1589 100.79C57.9915 101.351 57.9575 101.943 58.0594 102.52C58.1613 103.096 58.3964 103.641 58.7459 104.111C59.0954 104.581 59.5498 104.962 60.0728 105.225C60.5958 105.488 61.173 105.626 61.7585 105.627C62.0462 105.627 62.333 105.595 62.6138 105.533C65.6797 105.185 68.8552 104.965 71.9596 104.758C71.9729 105.262 71.9813 105.777 71.991 106.298C72.0283 109.665 72.3259 113.07 72.6138 115.958C72.6644 116.488 72.7041 117.064 72.7475 117.67C72.927 120.426 73.1607 123.844 74.6424 126.428C75.1389 127.291 75.9577 127.921 76.9189 128.181C77.88 128.44 78.9049 128.308 79.7683 127.812C80.285 127.513 80.724 127.096 81.0497 126.596C81.3753 126.095 81.5785 125.525 81.6428 124.932C81.6382 124.098 81.4532 123.274 81.1007 122.519C79.9478 119.355 80.1165 116.048 79.8539 112.743C79.7816 111.81 79.7033 110.877 79.6467 109.944C79.5659 108.697 79.5142 107.451 79.5009 106.207C79.4925 105.533 79.4756 104.879 79.4624 104.239C84.669 103.89 89.8377 103.109 94.9147 101.903C95.3928 101.782 95.8425 101.569 96.2379 101.274C96.6334 100.979 96.9669 100.61 97.2193 100.186C97.4717 99.7625 97.6382 99.2933 97.709 98.8053C97.7799 98.3173 97.7539 97.8201 97.6324 97.3422" fill="#5A2E15"></path><path d="M187.376 138.148C186.972 138.15 186.569 138.085 186.186 137.955C180.029 135.905 174.061 124.906 173.012 122.141C170.286 114.953 167.224 106.414 165.196 97.5623C164.628 95.0855 164.112 92.5702 163.606 90.1403C162.582 85.2144 161.524 80.1452 160.066 75.2952C159.847 76.4601 159.689 77.6888 159.539 78.8971C159.447 79.591 159.366 80.2693 159.268 80.9318C159.146 81.7486 159.032 82.569 158.919 83.387C158.481 86.477 158.029 89.6766 157.414 92.8376C156.619 96.9468 155.901 101.255 155.139 105.808C153.803 113.771 152.422 122.004 150.569 129.398C150.368 130.211 149.901 130.933 149.242 131.449C148.583 131.965 147.77 132.246 146.933 132.246H146.89C146.046 132.237 145.23 131.944 144.573 131.414C143.916 130.884 143.457 130.149 143.27 129.326C141.355 120.929 139.653 112.356 138.008 104.063C136.885 98.4261 135.728 92.5918 134.52 86.8901C134.482 86.7058 134.43 86.4299 134.365 86.0866C134.065 84.4126 133.674 82.7562 133.195 81.1246C132.682 82.7446 132.281 84.3981 131.995 86.0734C131.844 86.8648 131.704 87.6177 131.545 88.2622C129.605 96.2625 127.602 104.208 125.707 111.664C125.585 112.142 125.371 112.592 125.076 112.987C124.781 113.382 124.411 113.715 123.987 113.967C123.563 114.219 123.094 114.386 122.606 114.456C122.117 114.527 121.62 114.501 121.142 114.38C120.664 114.258 120.215 114.044 119.82 113.749C119.424 113.454 119.091 113.084 118.839 112.66C118.587 112.236 118.421 111.766 118.35 111.278C118.279 110.79 118.305 110.293 118.427 109.815C120.315 102.377 122.318 94.4567 124.244 86.495C124.36 86.0348 124.48 85.3807 124.613 84.6807C125.41 80.4415 126.742 73.3339 132.53 72.0666C133.223 71.9153 133.939 71.9058 134.636 72.0387C135.333 72.1717 135.995 72.4442 136.584 72.84C139.352 74.6723 140.646 78.9019 141.742 84.6976C141.794 84.9651 141.832 85.1831 141.867 85.3301C143.088 91.0824 144.249 96.9383 145.372 102.6C145.852 105.017 146.338 107.447 146.829 109.892C147.131 108.116 147.427 106.337 147.728 104.565C148.463 100.168 149.228 95.6131 150.045 91.4088C150.617 88.4333 151.055 85.3337 151.481 82.3376C151.597 81.5112 151.713 80.6776 151.834 79.8524C151.924 79.2296 152.006 78.6008 152.083 77.9611C152.478 74.8434 152.925 71.3173 154.533 68.1659C156.356 64.5892 158.889 64.2242 160.23 64.3363C163.941 64.6194 165.807 68.6357 166.588 71.0089C168.381 76.7891 169.84 82.6675 170.958 88.6152C171.455 91.0089 171.967 93.4821 172.518 95.8854C174.444 104.294 177.403 112.528 180.033 119.477C180.91 121.581 182.045 123.568 183.413 125.391C184.718 127.369 186.329 129.127 188.186 130.598C189.883 131.853 191.741 133.178 190.936 135.577C190.688 136.325 190.21 136.976 189.571 137.437C188.932 137.899 188.164 138.147 187.376 138.148" fill="#5A2E15"></path><path d="M208.279 94.0532C207.916 94.1047 207.563 94.2103 207.231 94.3664C202.846 96.2674 198.709 100.683 195.597 104.319C194.208 105.87 193.035 107.602 192.11 109.467C191.612 110.461 191.268 111.525 191.091 112.622C190.979 113.494 191.027 114.952 191.836 115.506C192.962 116.277 194.957 115.782 196.019 115.134C197.646 114.14 199.133 112.936 200.443 111.551C201.846 110 203.052 108.282 204.033 106.435C206.051 102.798 207.445 98.8477 208.156 94.7495C208.199 94.517 208.246 94.2941 208.279 94.0532V94.0532ZM222.761 125.808C222.225 125.812 221.695 125.699 221.207 125.478C220.719 125.258 220.284 124.934 219.932 124.53C218.513 122.792 217.27 120.917 216.222 118.933C214.964 116.567 213.919 114.094 213.099 111.543C212.666 110.172 212.288 108.791 211.944 107.419C208.194 115.404 201.948 122.532 193.409 123.621C189.596 124.101 185.675 121.422 184.293 117.39C182.445 111.973 184.329 105.928 189.892 99.4357C193.757 94.9254 198.483 89.9766 204.235 87.4745C206.973 86.2831 209.463 86.2313 211.621 87.3155C213.324 88.2313 214.673 89.6898 215.452 91.4596C215.541 91.621 215.617 91.7894 215.68 91.9631C216.37 93.6558 216.903 95.4089 217.27 97.1998L217.452 97.9479C217.717 99.0574 217.967 100.184 218.22 101.302C218.849 104.075 219.442 106.702 220.259 109.269C220.945 111.4 221.819 113.466 222.869 115.443C223.207 116.025 223.591 116.578 224.016 117.099C224.884 118.148 225.615 119.304 226.193 120.537C226.393 120.987 226.502 121.473 226.513 121.966C226.525 122.459 226.44 122.95 226.261 123.409C226.083 123.869 225.816 124.289 225.475 124.645C225.134 125.002 224.726 125.287 224.275 125.486C223.799 125.7 223.283 125.811 222.761 125.808" fill="#5A2E15"></path><path d="M308.835 125.926C308.392 125.923 307.953 125.845 307.536 125.695C306.782 125.416 306.135 124.906 305.688 124.237C305.242 123.568 305.019 122.775 305.051 121.971C304.956 121.261 304.917 120.522 304.889 119.881C304.823 118.356 304.728 116.794 304.634 115.272C304.548 113.857 304.462 112.452 304.39 111.034C304.333 109.799 304.272 108.565 304.208 107.331C303.955 102.223 303.684 96.9355 303.684 91.647C303.686 90.6516 304.083 89.6976 304.787 88.9944C305.492 88.2912 306.446 87.8962 307.442 87.8962C308.437 87.8962 309.392 88.2912 310.096 88.9944C310.801 89.6976 311.198 90.6516 311.2 91.647C311.2 96.7415 311.458 101.931 311.712 106.952C311.774 108.191 311.836 109.434 311.896 110.681C311.965 112.057 312.05 113.437 312.132 114.816C312.226 116.364 312.321 117.964 312.395 119.554C312.416 120.015 312.437 120.527 312.489 120.931C312.685 121.534 312.726 122.177 312.607 122.8C312.488 123.423 312.214 124.006 311.81 124.495C311.45 124.937 310.997 125.295 310.482 125.542C309.968 125.79 309.406 125.921 308.835 125.926" fill="#5A2E15"></path><path d="M302.276 41.8428L293.121 53.9426C293.121 53.9426 290.494 57.1 291.943 58.4552C293.391 59.8165 301.513 58.1023 301.513 58.1023L313.412 54.9099C314.183 54.8965 314.947 55.0585 315.646 55.3837C316.345 55.7088 316.962 56.1886 317.448 56.7868C318.924 58.7817 329.651 72.0452 329.651 72.0452C329.651 72.0452 332.106 74.3124 333.383 71.7078C334.658 69.1082 336.494 50.7237 336.494 50.7237C336.494 50.7237 336.594 48.3264 339.649 47.3843C342.708 46.4435 355.859 41.6669 355.859 41.6669C355.859 41.6669 358.316 40.7574 358.571 39.0263C358.571 39.0263 359.479 37.5385 353.751 36.1543C347.432 34.6172 339.121 30.4322 339.121 30.4322C339.121 30.4322 335.16 28.8878 335.78 21.302C336.506 12.3284 335.982 8.77098 335.982 8.77098C335.982 8.77098 336.509 5.21118 334.364 4.30164C332.215 3.39211 328.403 8.53728 328.403 8.53728C328.403 8.53728 318.163 21.1032 316.782 21.0261C315.402 20.9418 297.632 15.899 297.632 15.899C297.632 15.899 291.597 14.6281 294.027 19.5492C296.684 24.928 299.783 30.1443 302.876 35.2762C304.24 37.5482 303.843 39.7732 302.276 41.8428" fill="#F6A112"></path><path d="M307.281 8.26246C307.281 8.26246 305.31 5.30742 307.35 2.68726C309.384 0.0731204 311.626 -0.483449 313.15 0.373073C314.668 1.23562 317.063 4.76172 316.162 7.42282C315.262 10.0779 312.474 10.8043 310.681 10.5393C308.886 10.2731 307.281 8.26246 307.281 8.26246Z" fill="#F6A112"></path><path d="M346.893 18.723C346.893 18.723 348.213 14.9777 350.611 14.1947C353.014 13.408 355.198 14.114 355.942 15.8752C356.703 17.6352 356.078 20.9698 353.673 22.6382C351.268 24.32 348.729 24.32 348.014 23.1984C347.287 22.0793 346.153 20.3204 346.893 18.723Z" fill="#F6A112"></path><path d="M351.675 55.5814C351.675 55.5814 356.651 55.4296 356.947 59.4063C357.241 63.3865 354.799 65.3092 352.367 65.4586C349.935 65.6019 345.98 64.0479 346.75 59.6978C347.523 55.3453 350.794 55.5296 351.675 55.5814" fill="#F6A112"></path><path d="M311.807 66.3411C311.807 66.3411 315.015 67.7409 314.111 71.1573C313.221 74.5726 309.824 78.8082 306.248 77.2241C302.664 75.6423 303.525 70.7743 304.264 69.3046C305.006 67.8361 306.993 64.1847 311.807 66.3411" fill="#F6A112"></path><path d="M286.132 41.7046C286.132 41.7046 290.485 40.0073 289.277 35.4946C288.075 30.9819 285.632 30.8481 284.237 30.7566C282.843 30.671 279.019 31.9817 279.474 36.027C279.926 40.0808 282.388 42.4323 286.132 41.7046" fill="#F6A112"></path><path d="M103.326 113.359C103.326 114.349 103.032 115.316 102.482 116.139C101.932 116.963 101.151 117.604 100.236 117.983C99.3217 118.362 98.3154 118.461 97.3445 118.268C96.3736 118.075 95.4818 117.598 94.7818 116.898C94.0818 116.198 93.6051 115.306 93.4121 114.336C93.219 113.365 93.3181 112.358 93.697 111.444C94.0759 110.529 94.7175 109.748 95.5406 109.198C96.3637 108.648 97.3314 108.354 98.3213 108.354C98.9785 108.354 99.6294 108.484 100.237 108.735C100.844 108.987 101.396 109.355 101.86 109.82C102.325 110.285 102.694 110.836 102.945 111.443C103.196 112.051 103.326 112.702 103.326 113.359" fill="#5A2E15"></path><path d="M58.675 186.974H50.2506V190.742H57.7231V193.764H50.2506V199.703H46.6074V183.953H58.675V186.974Z" fill="#F6A112"></path><path d="M72.9168 199.703L69.4136 194.636C69.2281 194.658 68.9486 194.658 68.5547 194.658H66.0478V199.703H62.4277V183.953H68.5547C73.0096 183.953 75.8635 186.082 75.8635 189.337C75.8682 190.31 75.5781 191.263 75.0313 192.068C74.4844 192.873 73.7065 193.494 72.8 193.849L77.0236 199.703H72.9168ZM66.0478 191.743H68.5788C71.0134 191.743 72.2446 190.933 72.2446 189.337C72.2446 187.741 71.0134 186.933 68.5788 186.933H66.0478V191.743Z" fill="#F6A112"></path><path d="M92.2384 186.954H83.7219V190.337H91.2858V193.296H83.7219V196.702H92.4685V199.703H80.0774V183.953H92.2384V186.954Z" fill="#F6A112"></path><path d="M107.635 194.148V183.953H111.231V199.703H107.751L99.9538 189.486V199.703H96.3567V183.953H99.8366L107.635 194.148Z" fill="#F6A112"></path><path d="M123.917 183.655C127.165 183.655 129.882 185.102 131.297 187.294L128.164 188.912C127.691 188.23 127.054 187.678 126.312 187.307C125.57 186.935 124.747 186.755 123.917 186.785C123.059 186.808 122.221 187.05 121.482 187.488C120.744 187.926 120.13 188.546 119.699 189.288C119.267 190.03 119.033 190.871 119.018 191.729C119.003 192.587 119.207 193.435 119.612 194.193C120.017 194.95 120.609 195.591 121.331 196.054C122.054 196.518 122.883 196.79 123.74 196.843C124.597 196.896 125.453 196.729 126.227 196.358C127.002 195.987 127.668 195.425 128.164 194.723L131.297 196.361C129.882 198.553 127.165 200 123.917 200C118.929 200.065 115.1 196.445 115.17 191.827C115.1 187.232 118.929 183.591 123.917 183.655Z" fill="#F6A112"></path><path d="M138.851 190.296H146.649V183.953H150.29V199.704H146.649V193.318H138.851V199.704H135.208V183.953H138.851V190.296Z" fill="#F6A112"></path><path d="M169.908 183.655C173.156 183.655 175.872 185.102 177.288 187.294L174.154 188.912C173.681 188.23 173.044 187.678 172.303 187.307C171.561 186.935 170.737 186.755 169.908 186.785C169.05 186.808 168.212 187.05 167.473 187.488C166.735 187.926 166.121 188.546 165.689 189.288C165.258 190.03 165.024 190.871 165.008 191.729C164.993 192.587 165.198 193.435 165.603 194.193C166.008 194.95 166.6 195.591 167.322 196.054C168.045 196.518 168.874 196.79 169.731 196.843C170.587 196.896 171.444 196.729 172.218 196.358C172.992 195.987 173.659 195.425 174.154 194.723L177.288 196.361C175.872 198.553 173.156 200 169.908 200C164.919 200.065 161.091 196.445 161.16 191.827C161.091 187.232 164.919 183.591 169.908 183.655Z" fill="#F6A112"></path><path d="M191.134 196.595H184.079L182.826 199.704H179.045L185.797 183.953H189.532L196.284 199.704H192.411L191.134 196.595ZM190.021 193.808L187.607 187.912L185.216 193.808H190.021Z" fill="#F6A112"></path><path d="M209.944 199.703L206.439 194.636C206.256 194.658 205.975 194.658 205.582 194.658H203.075V199.703H199.455V183.953H205.582C210.037 183.953 212.891 186.082 212.891 189.337C212.896 190.31 212.606 191.263 212.059 192.068C211.512 192.873 210.734 193.494 209.828 193.849L214.05 199.703H209.944ZM203.075 191.743H205.605C208.04 191.743 209.272 190.933 209.272 189.337C209.272 187.741 208.04 186.933 205.605 186.933H203.075V191.743Z" fill="#F6A112"></path><path d="M220.748 183.953H217.105V199.703H220.748V183.953Z" fill="#F6A112"></path><path d="M236.38 191.592C237.252 191.733 238.048 192.17 238.635 192.829C239.223 193.487 239.566 194.328 239.607 195.21C239.607 197.871 237.285 199.703 233.224 199.703H225.218V183.953H232.645C236.705 183.953 238.865 185.569 238.865 188.209C238.861 188.964 238.619 189.697 238.173 190.305C237.726 190.913 237.099 191.363 236.38 191.592V191.592ZM232.575 186.847H228.838V190.443H232.575C234.339 190.443 235.289 189.783 235.289 188.593C235.289 187.484 234.408 186.847 232.575 186.847V186.847ZM233.224 193.168H228.838V196.807H233.154C235.035 196.807 235.938 196.084 235.938 194.914C235.938 193.786 234.965 193.168 233.224 193.168" fill="#F6A112"></path><path d="M254.632 191.592C255.504 191.733 256.3 192.169 256.888 192.828C257.476 193.487 257.819 194.328 257.86 195.21C257.86 197.871 255.538 199.703 251.477 199.703H243.471V183.953H250.898C254.958 183.953 257.116 185.569 257.116 188.209C257.113 188.964 256.871 189.697 256.425 190.305C255.979 190.913 255.351 191.364 254.632 191.592H254.632ZM250.827 186.847H247.091V190.443H250.827C252.592 190.443 253.542 189.783 253.542 188.593C253.542 187.484 252.66 186.847 250.827 186.847V186.847ZM251.477 193.168H247.091V196.807H251.406C253.288 196.807 254.192 196.084 254.192 194.914C254.192 193.786 253.217 193.168 251.477 193.168" fill="#F6A112"></path><path d="M273.885 186.954H265.368V190.337H272.933V193.296H265.368V196.702H274.115V199.703H261.724V183.953H273.885V186.954Z" fill="#F6A112"></path><path d="M288.822 196.595H281.768L280.516 199.704H276.733L283.486 183.953H287.222L293.973 199.704H290.099L288.822 196.595ZM287.709 193.808L285.295 187.912L282.905 193.808H287.709Z" fill="#F6A112"></path><path d="M308.421 194.148V183.953H312.016V199.703H308.538L300.74 189.486V199.703H297.144V183.953H300.623L308.421 194.148Z" fill="#F6A112"></path><path d="M5 150.03H23.7841V153.156H16.2935V170.702H12.4571V153.156H5V150.03Z" fill="#5A2E15"></path><path d="M30.8739 158.759H42.5962V150.03H46.4047V170.701H42.5962V161.914H30.8739V170.701H27.0369V150.03H30.8739V158.759Z" fill="#5A2E15"></path><path d="M66.7899 153.156H54.912V158.789H65.5311V161.887H54.912V167.577H67.0947V170.701H51.0764V150.03H66.7899V153.156Z" fill="#5A2E15"></path><path d="M93.7338 153.156H81.9787V159.183H92.475V162.31H81.9787V170.701H78.1423V150.03H93.7338V153.156Z" fill="#5A2E15"></path><path d="M111.538 170.703L106.38 163.577C105.768 163.605 105.308 163.633 104.97 163.633H101.042V170.703H97.2351V150.03H104.97C110.8 150.03 114.452 152.705 114.452 156.846C114.452 159.577 112.827 161.718 110.003 162.816L115.864 170.703L111.538 170.703ZM105 160.592C108.773 160.592 110.678 159.239 110.678 156.873C110.678 154.507 108.713 153.128 105 153.128H101.042V160.592L105 160.592Z" fill="#5A2E15"></path><path d="M122.467 150.03H118.63V170.702H122.467V150.03Z" fill="#5A2E15"></path><path d="M142.844 153.156H130.966V158.789H141.586V161.887H130.966V167.577H143.151V170.701H127.129V150.03H142.844V153.156Z" fill="#5A2E15"></path><path d="M162.212 164.928V150.03H165.955V170.701H162.336L150.611 155.773V170.701H146.835V150.03H150.52L162.212 164.928Z" fill="#5A2E15"></path><path d="M178.791 170.703H170.657V150.031H178.791C186.003 149.946 190.729 154.312 190.669 160.367C190.729 166.423 186.003 170.787 178.791 170.703ZM178.791 153.157H174.494V167.578H178.791C183.917 167.578 186.831 164.845 186.831 160.367C186.831 155.861 183.917 153.157 178.791 153.157" fill="#5A2E15"></path><path d="M198.249 167.576H209.82V170.702H194.412V150.03H198.249V167.576Z" fill="#5A2E15"></path><path d="M211.786 150.03L218.138 160.027L224.522 150.03H228.697L220.011 163.322V170.702H216.205V163.322L207.52 150.03H211.786Z" fill="#5A2E15"></path><path d="M242.819 150.03H238.982V170.702H242.819V150.03Z" fill="#5A2E15"></path><path d="M249.539 165.097C250.553 166.786 252.7 167.97 255.556 167.97C256.771 168.014 257.977 167.742 259.055 167.18C259.457 167.009 259.803 166.729 260.053 166.37C260.303 166.011 260.446 165.589 260.466 165.153C260.466 163.605 259.208 162.731 256.139 162.026L253.284 161.378C249.202 160.394 247.148 158.506 247.148 155.719C247.148 152.17 250.553 149.635 255.465 149.635C257.238 149.608 258.993 149.993 260.59 150.762C261.986 151.375 263.155 152.409 263.933 153.719L260.805 155.324C259.915 153.831 257.766 152.76 255.402 152.76C252.855 152.76 250.983 153.886 250.983 155.549C250.983 157.042 252.211 157.858 255.279 158.563L258.133 159.21C262.154 160.141 264.303 162.083 264.303 164.984C264.303 168.562 260.619 171.095 255.494 171.095C251.29 171.095 247.821 169.322 246.348 166.702L249.539 165.097Z" fill="#5A2E15"></path><path d="M271.854 167.576H283.424V170.702H268.017V150.03H271.854V167.576Z" fill="#5A2E15"></path><path d="M300.953 166.026H290.946L288.952 170.702H284.991L294.044 150.03H297.943L306.998 170.702H302.947L300.953 166.026ZM299.723 163.069L295.949 154.198L292.172 163.069H299.723Z" fill="#5A2E15"></path><path d="M325.171 164.928V150.03H328.915V170.701H325.294L313.568 155.773V170.701H309.794V150.03H313.476L325.171 164.928Z" fill="#5A2E15"></path><path d="M341.744 170.703H333.611V150.031H341.744C348.955 149.946 353.684 154.312 353.621 160.367C353.684 166.423 348.955 170.787 341.744 170.703ZM341.744 153.157H337.448V167.578H341.744C346.87 167.578 349.786 164.845 349.786 160.367C349.786 155.861 346.87 153.157 341.744 153.157" fill="#5A2E15"></path></g><defs><clipPath id="clip0_148:2"><rect width="358.625" height="200" fill="white"></rect></clipPath></defs></svg> 